<svg width="134" height="131" viewBox="0 0 134 131" fill="none" xmlns="http://www.w3.org/2000/svg">
<path d="M48.2734 6.93354C50.3203 0.929633 47.4687 0.56635 46.9101 1.21088C35.6523 14.1562 27.0312 50.1757 24.1523 51.6328C17.8164 54.8359 10.7109 50.2851 5.60153 48.3242C3.51169 47.5234 2.23044 48.1835 1.0195 49.8984C-0.191437 51.6171 13.0547 59.5664 23.8632 66.8437C34.6679 74.1249 40.9765 58.2421 41.207 45.6835C41.4336 33.1289 43.5781 20.6913 48.2734 6.93354Z" fill="#40BFBC"/>
<path d="M13.2265 50.1876C8.13276 47.2306 6.4101 40.7306 9.39057 35.6681C12.3671 30.6056 18.914 28.8986 24.0156 31.8556C29.1093 34.8165 30.8281 41.3165 27.8515 46.379C24.871 51.4415 18.3242 53.1486 13.2265 50.1876Z" fill="#40BFBC"/>
<path d="M6.49224 53.0624C2.25787 48.3241 0.5274 50.6015 0.812556 51.4023C6.56256 67.5273 33.8008 92.8046 33.6446 96.0156C33.3047 103.062 25.8047 106.945 21.5626 110.379C19.8282 111.785 19.7696 113.219 20.668 115.113C21.5665 117.012 35.086 109.516 46.8047 103.797C58.5235 98.082 47.7579 84.7695 36.8868 78.3515C26.0196 71.9335 16.2071 63.9257 6.49224 53.0624Z" fill="#EF3026"/>
<path d="M26.9687 104.723C21.8554 107.656 15.3202 105.918 12.3671 100.84C9.414 95.7619 11.164 89.2697 16.2773 86.3361C21.3906 83.4025 27.9296 85.1447 30.8788 90.2189C33.832 95.297 32.082 101.789 26.9687 104.723Z" fill="#EF3026"/>
<path d="M26.0039 111.711C19.75 112.984 20.875 115.609 21.7148 115.765C38.6484 118.883 74.3125 108.094 77.0312 109.832C83.0078 113.648 82.6406 122.039 83.5156 127.41C83.875 129.601 85.0938 130.367 87.1953 130.543C89.3008 130.715 89.5234 115.344 90.3984 102.402C91.2734 89.4646 74.2852 92.0701 63.2539 98.2107C52.2227 104.351 40.332 108.789 26.0039 111.711Z" fill="#F89C22"/>
<path d="M81.2891 119.926C81.2891 125.789 76.5039 130.543 70.6016 130.543C64.6953 130.547 59.9102 125.793 59.9102 119.93C59.9102 114.066 64.6953 109.312 70.5977 109.312C76.5 109.312 81.2891 114.063 81.2891 119.926Z" fill="#F89C22"/>
<path d="M86.9022 124.246C84.8866 130.262 87.7381 130.61 88.2928 129.961C99.4764 116.957 107.898 80.8869 110.773 79.4182C117.09 76.1838 124.223 80.6916 129.344 82.6252C131.433 83.4143 132.711 82.7463 133.914 81.0236C135.117 79.301 121.824 71.426 110.976 64.2033C100.133 56.9846 93.91 72.9025 93.7538 85.4611C93.5897 98.0158 91.5155 110.465 86.9022 124.246Z" fill="#AB2863"/>
<path d="M121.707 80.8009C126.82 83.7306 128.574 90.2228 125.621 95.3009C122.672 100.383 116.133 102.121 111.02 99.1915C105.906 96.2618 104.153 89.7696 107.106 84.6915C110.055 79.6095 116.59 77.8712 121.707 80.8009Z" fill="#AB2863"/>
<path d="M128.262 78.1521C132.5 82.8943 134.23 80.613 133.941 79.8122C128.195 63.6872 100.961 38.406 101.113 35.199C101.457 28.1482 108.953 24.2693 113.199 20.8318C114.933 19.4294 114.992 17.9958 114.09 16.1013C113.191 14.2068 99.6756 21.6951 87.9568 27.4138C76.2342 33.1287 86.9998 46.4412 97.8709 52.8591C108.738 59.2771 118.551 67.2888 128.262 78.1521Z" fill="#8EBF25"/>
<path d="M107.789 26.4922C112.903 23.5586 119.442 25.2969 122.391 30.375C125.348 35.4532 123.594 41.9454 118.481 44.875C113.367 47.8086 106.832 46.0704 103.879 40.9922C100.926 35.9141 102.676 29.4219 107.789 26.4922Z" fill="#8EBF25"/>
<path d="M108.762 19.5117C115.015 18.2344 113.89 15.6094 113.051 15.4532C96.117 12.336 60.4529 23.1172 57.7342 21.3789C51.7576 17.5625 52.1248 9.1719 51.2498 3.80081C50.8904 1.6094 49.6717 0.843778 47.5701 0.667997C45.4646 0.492216 45.2381 15.8672 44.3631 28.8047C43.4881 41.7422 60.4763 39.1407 71.5115 33C82.5428 26.8633 94.4334 22.4297 108.762 19.5117Z" fill="#2A3758"/>
<path d="M53.4766 11.2852C53.4766 5.42188 58.2656 0.667969 64.168 0.667969C70.0703 0.667969 74.8555 5.42188 74.8555 11.2812C74.8555 17.1445 70.0703 21.8984 64.168 21.9023C58.2617 21.9023 53.4766 17.1484 53.4766 11.2852Z" fill="#2A3758"/>
</svg>
