<svg width="31" height="29" viewBox="0 0 31 29" fill="none" xmlns="http://www.w3.org/2000/svg">
<g filter="url(#filter0_d)">
<path d="M24.6042 3.34668H6.39583C5.07525 3.34668 4 4.42433 4 5.74778V18.2341C4 19.5576 5.07525 20.6353 6.39583 20.6353H24.6042C25.9247 20.6353 27 19.5576 27 18.2341V5.74778C27 4.42433 25.9247 3.34668 24.6042 3.34668ZM24.01 17.8039C23.9151 17.9076 23.7867 17.9603 23.6564 17.9603C23.5404 17.9603 23.4254 17.9191 23.3334 17.8345L18.4287 13.3481L18.0588 13.7535C17.3793 14.494 16.4698 14.9003 15.499 14.9003C14.5273 14.9003 13.6188 14.4931 12.9403 13.7544L12.5694 13.3481L7.6685 17.8345C7.5765 17.9191 7.46054 17.9603 7.34554 17.9603C7.21617 17.9603 7.08583 17.9076 6.99192 17.8039C6.81367 17.6079 6.82708 17.3043 7.02258 17.1256L11.9235 12.6394L6.99192 7.2356C6.81367 7.03962 6.82708 6.73535 7.02258 6.55662C7.21712 6.37693 7.52092 6.3913 7.70012 6.58728L13.6485 13.1051C14.6356 14.1818 16.3644 14.1828 17.3534 13.1042L23.2903 6.59591C23.4705 6.39921 23.7714 6.38651 23.9678 6.56524C24.1633 6.74493 24.1768 7.04848 23.9985 7.24422L19.0765 12.6394L23.9803 17.1256C24.1748 17.3043 24.1882 17.6079 24.01 17.8039Z" fill="white"/>
</g>
<defs>
<filter id="filter0_d" x="0" y="0" width="31" height="31" filterUnits="userSpaceOnUse" color-interpolation-filters="sRGB">
<feFlood flood-opacity="0" result="BackgroundImageFix"/>
<feColorMatrix in="SourceAlpha" type="matrix" values="0 0 0 0 0 0 0 0 0 0 0 0 0 0 0 0 0 0 127 0"/>
<feOffset dy="4"/>
<feGaussianBlur stdDeviation="2"/>
<feColorMatrix type="matrix" values="0 0 0 0 0 0 0 0 0 0 0 0 0 0 0 0 0 0 0.25 0"/>
<feBlend mode="normal" in2="BackgroundImageFix" result="effect1_dropShadow"/>
<feBlend mode="normal" in="SourceGraphic" in2="effect1_dropShadow" result="shape"/>
</filter>
</defs>
</svg>
