<svg width="28" height="30" viewBox="0 0 28 30" fill="none" xmlns="http://www.w3.org/2000/svg">
<g filter="url(#filter0_d)">
<path d="M13.9837 0.00390625C10.6763 0.00390625 7.99576 2.68882 7.99576 6.00166C7.99576 10.2862 13.9837 16.9975 13.9837 16.9975C13.9837 16.9975 19.9716 10.2862 19.9716 6.00166C19.9716 2.68882 17.291 0.00390625 13.9837 0.00390625ZM13.9837 3.85986C15.1652 3.85986 16.122 4.81801 16.122 6.00166C16.122 7.18416 15.1643 8.14345 13.9837 8.14345C12.803 8.14345 11.8455 7.1853 11.8455 6.00166C11.8455 4.81801 12.8021 3.85986 13.9837 3.85986ZM9.4732 14.4341C6.23095 15.0938 4.00391 16.4397 4.00391 17.9972C4.00391 20.2054 8.47174 21.9957 13.9837 21.9957C19.4956 21.9957 23.9634 20.2054 23.9634 17.9972C23.9634 16.4397 21.7364 15.0948 18.4941 14.4341C18.0429 15.0948 17.6011 15.7004 17.1941 16.2303C19.9204 16.6442 21.5345 17.5095 21.9167 17.9951C21.4029 18.6489 18.6701 19.9943 13.9857 19.9943L13.9837 19.9985L13.9818 19.9964C9.2972 19.9964 6.56553 18.6519 6.05059 17.9972C6.43284 17.5104 8.04595 16.643 10.7735 16.2303C10.3663 15.6995 9.92443 15.0938 9.4732 14.4341Z" fill="white"/>
</g>
<defs>
<filter id="filter0_d" x="-1" y="0" width="30" height="30" filterUnits="userSpaceOnUse" color-interpolation-filters="sRGB">
<feFlood flood-opacity="0" result="BackgroundImageFix"/>
<feColorMatrix in="SourceAlpha" type="matrix" values="0 0 0 0 0 0 0 0 0 0 0 0 0 0 0 0 0 0 127 0"/>
<feOffset dy="4"/>
<feGaussianBlur stdDeviation="2"/>
<feColorMatrix type="matrix" values="0 0 0 0 0 0 0 0 0 0 0 0 0 0 0 0 0 0 0.25 0"/>
<feBlend mode="normal" in2="BackgroundImageFix" result="effect1_dropShadow"/>
<feBlend mode="normal" in="SourceGraphic" in2="effect1_dropShadow" result="shape"/>
</filter>
</defs>
</svg>
