<svg width="31" height="31" viewBox="0 0 31 31" fill="none" xmlns="http://www.w3.org/2000/svg">
<g filter="url(#filter0_d)">
<path d="M21.3602 14.3889C20.9705 14.1604 20.4915 14.1652 20.1035 14.3957L18.1395 15.5659C17.6997 15.8279 17.1507 15.7972 16.7475 15.4824C16.0505 14.9379 14.9282 14.0222 13.952 13.0459C12.9755 12.0694 12.0597 10.9472 11.5155 10.2504C11.2005 9.84717 11.1697 9.29792 11.432 8.85842L12.6022 6.89417C12.8335 6.50642 12.8355 6.02342 12.607 5.63367L9.72498 0.710668C9.44573 0.234668 8.89073 0.000417747 8.35423 0.131918C7.83298 0.258668 7.15598 0.567668 6.44673 1.27817C4.22523 3.49967 3.04523 7.24642 11.3992 15.6004C19.7532 23.9544 23.4992 22.7754 25.7215 20.5529C26.433 19.8417 26.741 19.1639 26.8687 18.6417C26.9982 18.1059 26.768 17.5549 26.2927 17.2764C25.1062 16.5824 22.5467 15.0839 21.3602 14.3889Z" fill="white"/>
</g>
<defs>
<filter id="filter0_d" x="-1" y="0" width="32" height="32" filterUnits="userSpaceOnUse" color-interpolation-filters="sRGB">
<feFlood flood-opacity="0" result="BackgroundImageFix"/>
<feColorMatrix in="SourceAlpha" type="matrix" values="0 0 0 0 0 0 0 0 0 0 0 0 0 0 0 0 0 0 127 0"/>
<feOffset dy="4"/>
<feGaussianBlur stdDeviation="2"/>
<feColorMatrix type="matrix" values="0 0 0 0 0 0 0 0 0 0 0 0 0 0 0 0 0 0 0.25 0"/>
<feBlend mode="normal" in2="BackgroundImageFix" result="effect1_dropShadow"/>
<feBlend mode="normal" in="SourceGraphic" in2="effect1_dropShadow" result="shape"/>
</filter>
</defs>
</svg>
