<svg width="1920" height="511" viewBox="0 0 1920 511" fill="none" xmlns="http://www.w3.org/2000/svg">
<g filter="url(#filter0_d)">
<path d="M0 507.971V202.971C122.759 282.324 192.833 278.407 319.5 202.971C568.982 37.6436 698.477 -22.1679 855 106.971C1052.04 274.822 1128.17 276.796 1248 237.471C1334.67 210.946 1380.62 206.505 1465 229.971C1595.05 269.914 1654.45 248.627 1750 176.971C1822.56 117.965 1859.82 96.2455 1920 78.9711V507.971H0Z" fill="#BE2F2F"/>
</g>
<g filter="url(#filter1_d)">
<path d="M0 507.971V164.471C98.631 161.135 131.5 181.471 210.5 218.971C289.5 256.471 366.552 257.448 466.5 246.471C466.5 246.471 618.5 219.471 729.5 152.971C840.5 86.4711 971.902 100.369 1123.5 181.471C1243.21 245.511 1306.5 303.471 1385.5 267.471C1464.5 231.471 1501.11 237.891 1575 276.971C1716.31 347.502 1790.61 370.41 1920 338.971V507.971H0Z" fill="#DF3838"/>
</g>
<g filter="url(#filter2_d)">
<path d="M0 507.972V280.472C117.813 228.285 258.5 256.15 359 311.472C459.5 366.794 472.785 393.231 557.5 401.471C634.873 408.998 675.155 407.01 752.5 361.472C873.869 263.508 912.035 236.998 1028 247.472C1113 255.149 1162 296.471 1226 339.972C1290 383.472 1399.6 406.203 1483.5 394.972C1626.25 345.279 1708.27 305.349 1848 339.972C1876.77 347.1 1898 354.366 1920 363.972V507.972H0Z" fill="#F23F3F"/>
</g>
<g filter="url(#filter3_d)">
<path d="M246.515 390.036C215.869 406.447 76.631 468.086 0 468.307V511H1920.11V477.964C1932.06 469.684 1821.11 442.386 1713.1 454.076C1605.1 465.766 1486.59 420.022 1391.58 369.197C1296.58 318.372 1152.66 289.259 1024.56 411.383C869.169 559.523 724.527 427.138 683.041 381.396C641.554 335.653 509.33 249.3 246.515 390.036Z" fill="white"/>
</g>
<defs>
<filter id="filter0_d" x="-20" y="0" width="1960" height="510.971" filterUnits="userSpaceOnUse" color-interpolation-filters="sRGB">
<feFlood flood-opacity="0" result="BackgroundImageFix"/>
<feColorMatrix in="SourceAlpha" type="matrix" values="0 0 0 0 0 0 0 0 0 0 0 0 0 0 0 0 0 0 127 0"/>
<feOffset dy="-17"/>
<feGaussianBlur stdDeviation="10"/>
<feColorMatrix type="matrix" values="0 0 0 0 0 0 0 0 0 0 0 0 0 0 0 0 0 0 0.15 0"/>
<feBlend mode="normal" in2="BackgroundImageFix" result="effect1_dropShadow"/>
<feBlend mode="normal" in="SourceGraphic" in2="effect1_dropShadow" result="shape"/>
</filter>
<filter id="filter1_d" x="-20" y="73.7334" width="1960" height="437.237" filterUnits="userSpaceOnUse" color-interpolation-filters="sRGB">
<feFlood flood-opacity="0" result="BackgroundImageFix"/>
<feColorMatrix in="SourceAlpha" type="matrix" values="0 0 0 0 0 0 0 0 0 0 0 0 0 0 0 0 0 0 127 0"/>
<feOffset dy="-17"/>
<feGaussianBlur stdDeviation="10"/>
<feColorMatrix type="matrix" values="0 0 0 0 0 0 0 0 0 0 0 0 0 0 0 0 0 0 0.15 0"/>
<feBlend mode="normal" in2="BackgroundImageFix" result="effect1_dropShadow"/>
<feBlend mode="normal" in="SourceGraphic" in2="effect1_dropShadow" result="shape"/>
</filter>
<filter id="filter2_d" x="-20" y="208.336" width="1960" height="302.635" filterUnits="userSpaceOnUse" color-interpolation-filters="sRGB">
<feFlood flood-opacity="0" result="BackgroundImageFix"/>
<feColorMatrix in="SourceAlpha" type="matrix" values="0 0 0 0 0 0 0 0 0 0 0 0 0 0 0 0 0 0 127 0"/>
<feOffset dy="-17"/>
<feGaussianBlur stdDeviation="10"/>
<feColorMatrix type="matrix" values="0 0 0 0 0 0 0 0 0 0 0 0 0 0 0 0 0 0 0.15 0"/>
<feBlend mode="normal" in2="BackgroundImageFix" result="effect1_dropShadow"/>
<feBlend mode="normal" in="SourceGraphic" in2="effect1_dropShadow" result="shape"/>
</filter>
<filter id="filter3_d" x="-20" y="273" width="1961" height="238" filterUnits="userSpaceOnUse" color-interpolation-filters="sRGB">
<feFlood flood-opacity="0" result="BackgroundImageFix"/>
<feColorMatrix in="SourceAlpha" type="matrix" values="0 0 0 0 0 0 0 0 0 0 0 0 0 0 0 0 0 0 127 0"/>
<feOffset dy="-20"/>
<feGaussianBlur stdDeviation="10"/>
<feColorMatrix type="matrix" values="0 0 0 0 0 0 0 0 0 0 0 0 0 0 0 0 0 0 0.15 0"/>
<feBlend mode="normal" in2="BackgroundImageFix" result="effect1_dropShadow"/>
<feBlend mode="normal" in="SourceGraphic" in2="effect1_dropShadow" result="shape"/>
</filter>
</defs>
</svg>
